<?xml version="1.0" standalone="no"?>
<!DOCTYPE svg PUBLIC "-//W3C//DTD SVG 20010904//EN"
 "http://www.w3.org/TR/2001/REC-SVG-20010904/DTD/svg10.dtd">
<svg version="1.0" xmlns="http://www.w3.org/2000/svg"
 width="256.000000pt" height="256.000000pt" viewBox="0 0 256.000000 256.000000"
 preserveAspectRatio="xMidYMid meet">
<metadata>
Created by potrace 1.14, written by Peter Selinger 2001-2017
</metadata>
<g transform="translate(0.000000,256.000000) scale(0.100000,-0.100000)"
fill="#000000" stroke="none">
<path d="M357 1900 c-339 -532 -357 -561 -357 -606 0 -43 32 -107 326 -666
l326 -618 34 0 c66 0 57 21 -286 672 -260 492 -319 611 -311 626 5 10 163 259
350 553 368 576 380 599 308 599 -34 0 -36 -3 -390 -560z"/>
<path d="M1780 2427 c0 -26 71 -144 341 -566 187 -294 345 -543 350 -553 8
-15 -51 -134 -311 -626 -343 -651 -352 -672 -286 -672 l34 0 326 618 c294 559
326 623 326 666 0 45 -18 74 -357 606 -354 557 -356 560 -390 560 -31 0 -33
-2 -33 -33z"/>
<path d="M1492 1683 c-91 -112 -112 -144 -112 -170 0 -31 2 -33 33 -33 31 0
42 10 127 116 74 92 96 113 104 102 155 -204 169 -218 202 -218 32 0 34 2 34
33 0 25 -22 60 -107 170 -97 125 -109 137 -138 137 -28 0 -42 -13 -143 -137z"/>
<path d="M702 1678 c-103 -113 -122 -138 -122 -165 0 -31 2 -33 33 -33 29 0
45 12 132 108 54 59 102 108 105 110 4 1 46 -47 95 -108 81 -100 92 -110 122
-110 31 0 33 2 33 33 0 26 -20 57 -107 165 -142 175 -130 175 -291 0z"/>
<path d="M692 755 c3 -33 14 -43 268 -220 202 -142 271 -185 295 -185 24 0 80
39 273 187 230 177 242 188 242 220 0 31 -2 33 -33 33 -25 0 -58 -20 -157 -96
-69 -54 -170 -132 -226 -175 l-100 -78 -249 175 c-202 141 -255 174 -283 174
-32 0 -33 -1 -30 -35z"/>
</g>
</svg>
